<svg width="20" height="12" viewBox="0 0 20 12" fill="none" xmlns="http://www.w3.org/2000/svg">
<path d="M18.0625 0.900391H1.9375C1 0.900391 0.25 1.65039 0.25 2.58789V9.45039C0.25 10.3879 1 11.1379 1.9375 11.1379H18.0625C19 11.1379 19.75 10.3879 19.75 9.45039V7.72539C19.75 7.53789 19.6 7.35039 19.4125 7.35039C18.7 7.27539 18.2125 6.71289 18.2125 6.03789C18.2125 5.36289 18.7375 4.80039 19.4125 4.72539C19.6 4.72539 19.75 4.53789 19.75 4.35039V2.62539C19.75 1.65039 19 0.900391 18.0625 0.900391ZM19 4.01289C18.1 4.23789 17.425 5.06289 17.425 6.00039C17.425 6.93789 18.0625 7.76289 19 7.98789V9.41289C19 9.93789 18.5875 10.3504 18.0625 10.3504H14.95V9.41289C14.95 9.18789 14.8 9.03789 14.575 9.03789C14.35 9.03789 14.2 9.18789 14.2 9.41289V10.3504H1.9375C1.4125 10.3504 1 9.93789 1 9.41289V2.58789C1 2.06289 1.4125 1.65039 1.9375 1.65039H14.2V2.58789C14.2 2.81289 14.35 2.96289 14.575 2.96289C14.8 2.96289 14.95 2.81289 14.95 2.58789V1.65039H18.0625C18.5875 1.65039 19 2.06289 19 2.58789V4.01289Z" fill="#666666"/>
<path d="M14.5752 4.5C14.3502 4.5 14.2002 4.65 14.2002 4.875V7.125C14.2002 7.35 14.3502 7.5 14.5752 7.5C14.8002 7.5 14.9502 7.35 14.9502 7.125V4.875C14.9502 4.65 14.7627 4.5 14.5752 4.5Z" fill="#666666"/>
</svg>
