<svg width="24" height="23" viewBox="0 0 24 23" fill="none" xmlns="http://www.w3.org/2000/svg">
<path d="M12.0243 0C5.8356 0 0.799805 5.0344 0.799805 11.2238C0.799805 17.4132 5.8356 22.4476 12.0243 22.4476C18.213 22.4476 23.2488 17.4132 23.2488 11.2238C23.2488 5.0344 18.213 0 12.0243 0ZM12.0243 21.7C6.2479 21.7 1.5488 17.0002 1.5488 11.2238C1.5488 5.4474 6.2479 0.7476 12.0243 0.7476C17.8007 0.7476 22.4998 5.4474 22.4998 11.2238C22.4998 17.0002 17.8007 21.7 12.0243 21.7Z" fill="white"/>
<path d="M14.4742 4.92366H12.6066C10.228 4.89986 9.92423 6.37196 9.92423 7.96516V9.12366H8.87423C8.82677 9.11732 8.77849 9.12201 8.73313 9.13736C8.68778 9.1527 8.64658 9.1783 8.61272 9.21215C8.57886 9.24601 8.55327 9.28722 8.53792 9.33257C8.52257 9.37792 8.51789 9.4262 8.52423 9.47366V11.5737C8.51789 11.6211 8.52257 11.6694 8.53792 11.7148C8.55327 11.7601 8.57886 11.8013 8.61272 11.8352C8.64658 11.869 8.68778 11.8946 8.73313 11.91C8.77849 11.9253 8.82677 11.93 8.87423 11.9237H9.92423V17.1737C9.91839 17.2212 9.9235 17.2695 9.93917 17.3147C9.95483 17.36 9.98064 17.4011 10.0146 17.4348C10.0486 17.4686 10.0898 17.4942 10.1352 17.5096C10.1805 17.525 10.2288 17.5298 10.2763 17.5237H12.4148C12.6213 17.5475 12.7886 17.3802 12.7228 17.1737L12.7242 11.9237H14.4742C14.5217 11.93 14.57 11.9253 14.6153 11.91C14.6607 11.8946 14.7019 11.869 14.7357 11.8352C14.7696 11.8013 14.7952 11.7601 14.8105 11.7148C14.8259 11.6694 14.8306 11.6211 14.8242 11.5737V9.47366C14.8306 9.4262 14.8259 9.37792 14.8105 9.33257C14.7952 9.28722 14.7696 9.24601 14.7357 9.21215C14.7019 9.1783 14.6607 9.1527 14.6153 9.13736C14.57 9.12201 14.5217 9.11732 14.4742 9.12366H12.7221L12.7242 8.07366C12.7921 7.62636 12.7921 7.69916 13.2072 7.72366H14.4595C14.5568 7.70196 14.6604 7.71386 14.7332 7.64316C14.806 7.57246 14.848 7.47586 14.8235 7.37366V5.27366C14.83 5.22624 14.8254 5.17797 14.8102 5.13261C14.7949 5.08725 14.7694 5.04602 14.7356 5.01215C14.7018 4.97828 14.6606 4.95267 14.6153 4.93732C14.5699 4.92197 14.5217 4.91729 14.4742 4.92366ZM14.0997 6.98446L13.2219 6.95086C12.1348 6.95086 12.0438 7.54096 12.0438 8.14506L12.041 9.47226C12.0409 9.52141 12.0505 9.57009 12.0693 9.61552C12.088 9.66095 12.1155 9.70225 12.1503 9.73703C12.185 9.77181 12.2262 9.79941 12.2716 9.81824C12.317 9.83707 12.3657 9.84676 12.4148 9.84676H14.1242V11.1992H12.4162C12.317 11.1992 12.2219 11.2385 12.1517 11.3086C12.0814 11.3787 12.0419 11.4738 12.0417 11.573L12.041 16.8237H10.6242V11.5737C10.6242 11.3672 10.4835 11.1999 10.2763 11.1999H9.22423V9.84746H10.2763C10.3254 9.84754 10.3741 9.83793 10.4195 9.81919C10.4649 9.80045 10.5062 9.77295 10.5409 9.73826C10.6109 9.66756 10.6235 9.57236 10.6235 9.47296V7.96446C10.6235 6.39506 10.9406 5.64746 12.6059 5.64746H14.099V6.98446H14.0997Z" fill="white"/>
</svg>
