<svg width="64" height="64" viewBox="0 0 64 64" fill="none" xmlns="http://www.w3.org/2000/svg">
<path d="M32 5C46.888 5 59 17.112 59 32C59 46.888 46.888 59 32 59C17.112 59 5 46.888 5 32C5 17.112 17.112 5 32 5ZM32 2C15.433 2 2 15.432 2 32C2 48.568 15.433 62 32 62C48.567 62 62 48.568 62 32C62 15.432 48.567 2 32 2Z" fill="white"/>
<path d="M43.987 28.7452L28.013 18.2322C25.256 16.4182 23 17.6352 23 20.9352V43.0602C23 46.3602 25.259 47.5812 28.021 45.7742L43.98 35.3302C46.741 33.5212 46.744 30.5592 43.987 28.7452ZM41.858 33.1242L27.673 42.4072C26.753 43.0102 26 42.6032 26 41.5032V22.4912C26 21.3912 26.752 20.9862 27.671 21.5912L41.861 30.9292C42.78 31.5332 42.779 32.5212 41.858 33.1242Z" fill="white"/>
</svg>
