<svg width="23" height="23" viewBox="0 0 23 23" fill="none" xmlns="http://www.w3.org/2000/svg">
<path d="M11.7997 -0.0239258C5.611 -0.0239258 0.575195 5.01047 0.575195 11.1999C0.575195 17.3893 5.611 22.4237 11.7997 22.4237C17.9884 22.4237 23.0242 17.3893 23.0242 11.1999C23.0242 5.01047 17.9884 -0.0239258 11.7997 -0.0239258ZM11.7997 21.6761C6.0233 21.6761 1.3242 16.9763 1.3242 11.1999C1.3242 5.42347 6.0233 0.723674 11.7997 0.723674C17.5761 0.723674 22.2752 5.42347 22.2752 11.1999C22.2752 16.9763 17.5761 21.6761 11.7997 21.6761Z" fill="white"/>
<path d="M17.9559 7.73198C18.0335 7.58825 18.0975 7.43756 18.147 7.28188C18.1699 7.20966 18.1703 7.1322 18.1483 7.05972C18.1263 6.98724 18.0828 6.92314 18.0235 6.8759C17.9643 6.82866 17.8922 6.80049 17.8166 6.79511C17.741 6.78973 17.6656 6.8074 17.6003 6.84578C17.2416 7.05886 16.8533 7.21762 16.4481 7.31688C15.9562 6.87292 15.3173 6.6268 14.6547 6.62598C14.2947 6.62625 13.9384 6.69922 13.6073 6.8405C13.2762 6.98178 12.977 7.18847 12.7277 7.44817C12.4784 7.70787 12.2841 8.01523 12.1565 8.35184C12.0288 8.68845 11.9705 9.04737 11.9849 9.40708C10.4106 9.20889 8.97302 8.41227 7.97038 7.18248C7.93197 7.13589 7.88287 7.09926 7.82727 7.0757C7.77167 7.05214 7.71121 7.04235 7.65101 7.04716C7.59082 7.05197 7.53267 7.07124 7.48152 7.10333C7.43037 7.13542 7.38771 7.17938 7.35718 7.23148C7.1276 7.62553 7.00281 8.07183 6.99472 8.52781C6.98664 8.98379 7.09552 9.43423 7.31098 9.83618C7.25814 9.84509 7.20737 9.8636 7.16118 9.89078C7.10459 9.92687 7.05799 9.97663 7.02569 10.0355C6.99339 10.0943 6.97644 10.1604 6.97638 10.2275C6.97638 11.022 7.32988 11.7514 7.89968 12.247L7.87518 12.2715C7.83217 12.3201 7.80257 12.3792 7.78931 12.4428C7.77606 12.5063 7.7796 12.5723 7.79958 12.6341C7.9184 13.0047 8.11679 13.345 8.38087 13.6309C8.64494 13.9169 8.96833 14.1417 9.32838 14.2896C8.5889 14.6503 7.76133 14.791 6.94418 14.6949C6.86019 14.6863 6.77572 14.7059 6.70403 14.7504C6.63233 14.795 6.57745 14.8622 6.54798 14.9413C6.51969 15.021 6.51916 15.1079 6.54648 15.188C6.57379 15.268 6.62736 15.3365 6.69848 15.3823C7.80939 16.0953 9.10176 16.4741 10.4218 16.4736C14.7478 16.4736 17.3336 12.9596 17.3336 9.56248L17.3329 9.44768C17.7521 9.12037 18.1163 8.72807 18.4116 8.28568C18.4563 8.2188 18.4783 8.1393 18.4743 8.05895C18.4703 7.97859 18.4405 7.90166 18.3894 7.83955C18.3383 7.77743 18.2685 7.73343 18.1904 7.71405C18.1124 7.69468 18.0301 7.70096 17.9559 7.73198ZM16.7344 8.96048C16.6836 8.997 16.6428 9.04567 16.6156 9.10204C16.5885 9.15841 16.5759 9.22069 16.579 9.28318C16.5832 9.37558 16.5853 9.46938 16.5853 9.56178C16.5853 12.5914 14.2802 15.7253 10.4225 15.7253C9.73446 15.7256 9.05128 15.6101 8.40158 15.3837C9.1797 15.2346 9.91067 14.9009 10.5331 14.4107C10.5937 14.3629 10.638 14.2976 10.6601 14.2236C10.6821 14.1497 10.6808 14.0708 10.6563 13.9976C10.6318 13.9244 10.5853 13.8606 10.5231 13.8149C10.461 13.7692 10.3862 13.7438 10.3091 13.7422C10.0073 13.7364 9.71102 13.6598 9.44425 13.5185C9.17747 13.3772 8.94764 13.1752 8.77328 12.9288C8.95038 12.9169 9.12398 12.8875 9.29268 12.842C9.37433 12.8201 9.44616 12.7712 9.49646 12.7033C9.54675 12.6354 9.57254 12.5524 9.56962 12.468C9.56669 12.3835 9.53523 12.3025 9.48036 12.2382C9.42549 12.1739 9.35045 12.1301 9.26748 12.114C8.9266 12.0446 8.61098 11.8839 8.35439 11.649C8.0978 11.4141 7.9099 11.1139 7.81078 10.7805C7.99698 10.8274 8.18808 10.8547 8.37918 10.861C8.54368 10.8603 8.69628 10.7595 8.74738 10.6013C8.79848 10.4431 8.73828 10.2688 8.59898 10.1764C8.26961 9.95693 8.01601 9.64116 7.87281 9.2722C7.72961 8.90324 7.70379 8.49906 7.79888 8.11488C9.01481 9.3625 10.6567 10.1054 12.3965 10.1953C12.5197 10.196 12.6275 10.1519 12.7024 10.0616C12.7773 9.97128 12.806 9.85158 12.7794 9.73678C12.6836 9.32448 12.7265 8.89212 12.9012 8.5066C13.076 8.12109 13.3729 7.80393 13.7461 7.60419C14.1193 7.40445 14.5479 7.33327 14.9656 7.40167C15.3833 7.47007 15.7668 7.67424 16.0568 7.98258C16.1002 8.02895 16.1548 8.06349 16.2153 8.08296C16.2758 8.10243 16.3402 8.10619 16.4026 8.09388C16.5181 8.07078 16.6322 8.04418 16.7449 8.01338C16.6941 8.05141 16.6413 8.08669 16.5867 8.11908C16.5141 8.16354 16.4588 8.23141 16.43 8.31149C16.4011 8.39158 16.4004 8.47911 16.428 8.55965C16.4555 8.64019 16.5097 8.70894 16.5815 8.75457C16.6534 8.8002 16.7387 8.81999 16.8233 8.81068L16.9507 8.79458C16.8805 8.85237 16.8084 8.9077 16.7344 8.96048Z" fill="white"/>
</svg>
