<svg width="22" height="22" viewBox="0 0 22 22" fill="none" xmlns="http://www.w3.org/2000/svg">
<path d="M20.7104 4.71019C20.6174 4.80391 20.5068 4.87831 20.385 4.92908C20.2631 4.97985 20.1324 5.00598 20.0004 5.00598C19.8684 5.00598 19.7377 4.97985 19.6158 4.92908C19.4939 4.87831 19.3833 4.80391 19.2904 4.71019L19.0004 4.41019L12.9004 10.5202L10.0004 21.2602C9.94178 21.4783 9.81104 21.6702 9.62946 21.8046C9.44788 21.939 9.22615 22.0079 9.00038 22.0002C8.79074 22.0007 8.58623 21.9354 8.41575 21.8133C8.24528 21.6913 8.11747 21.5188 8.05038 21.3202L6.21038 15.7902L0.680383 14.0002C0.473403 13.9306 0.294885 13.7952 0.172097 13.6146C0.0493098 13.434 -0.0109986 13.2183 0.000383396 13.0002C-0.00734984 12.7744 0.0615832 12.5527 0.195955 12.3711C0.330327 12.1895 0.522222 12.0588 0.740383 12.0002L11.4804 9.10019L17.5904 3.00019L17.2904 2.71019C17.1021 2.52188 16.9963 2.26649 16.9963 2.00019C16.9963 1.73388 17.1021 1.47849 17.2904 1.29019C17.4787 1.10188 17.7341 0.996094 18.0004 0.996094C18.2667 0.996094 18.5221 1.10188 18.7104 1.29019L20.7104 3.29019C20.8041 3.38315 20.8785 3.49375 20.9293 3.61561C20.98 3.73747 21.0062 3.86817 21.0062 4.00019C21.0062 4.1322 20.98 4.2629 20.9293 4.38476C20.8785 4.50662 20.8041 4.61722 20.7104 4.71019Z" fill="#666666"/>
</svg>
